<?xml version="1.0" standalone="no"?>
<!DOCTYPE svg PUBLIC "-//W3C//DTD SVG 20010904//EN"
 "http://www.w3.org/TR/2001/REC-SVG-20010904/DTD/svg10.dtd">
<svg version="1.0" xmlns="http://www.w3.org/2000/svg"
 width="700.000000pt" height="700.000000pt" viewBox="0 0 700.000000 700.000000"
 preserveAspectRatio="xMidYMid meet">
<metadata>
Created by potrace 1.11, written by Peter Selinger 2001-2013
</metadata>
<g transform="translate(0.000000,700.000000) scale(0.100000,-0.100000)"
fill="#000000" stroke="none">
<path d="M3299 6996 c-2 -2 -42 -6 -89 -10 -100 -7 -225 -22 -295 -36 -27 -5
-63 -12 -80 -15 -68 -11 -95 -17 -190 -41 -452 -114 -873 -316 -1253 -602
-167 -125 -295 -241 -452 -409 -107 -115 -118 -127 -205 -238 -219 -282 -407
-623 -528 -960 -78 -218 -148 -503 -172 -701 -4 -33 -9 -68 -11 -79 -19 -101
-26 -569 -11 -715 9 -82 25 -208 33 -255 3 -16 7 -39 9 -50 14 -103 84 -372
133 -515 59 -173 96 -259 181 -430 432 -868 1207 -1519 2139 -1796 164 -49
400 -99 517 -110 33 -3 62 -7 66 -9 29 -18 545 -26 714 -11 854 75 1642 456
2238 1082 35 38 82 89 102 114 21 25 41 47 44 50 17 12 180 233 240 325 318
489 509 1044 559 1620 14 165 6 625 -13 720 -2 11 -7 40 -10 65 -3 25 -7 54
-9 65 -2 11 -11 61 -21 110 -94 506 -315 1007 -629 1425 -168 225 -331 395
-594 622 -58 51 -242 184 -321 233 -345 215 -640 344 -1006 440 -179 48 -275
65 -555 100 -51 7 -525 16 -531 11z m461 -340 c147 -15 214 -24 365 -51 52 -9
209 -50 314 -81 310 -94 657 -269 922 -463 116 -85 248 -195 249 -206 0 -6
-475 -485 -1055 -1065 l-1055 -1055 -1055 1055 c-580 580 -1055 1059 -1055
1065 1 11 133 121 249 206 459 337 1058 558 1611 594 52 4 96 8 97 9 5 5 352
-2 413 -8z m-675 -2985 c-2 -3 -401 -6 -887 -5 l-883 0 -3 895 -2 894 889
-889 c490 -490 888 -892 886 -895z m2600 1 c-6 -7 -1765 -9 -1771 -2 -3 2 395
404 883 892 l888 888 3 -887 c1 -487 0 -889 -3 -891z m-4709 868 c0 -781 -1
-870 -15 -871 -9 0 -153 -2 -319 -2 l-304 -2 7 95 c3 52 8 102 10 110 2 8 7
40 10 70 6 47 15 101 51 280 46 229 198 616 337 855 55 95 214 335 222 335 0
0 1 -391 1 -870z m5168 700 c263 -400 422 -823 491 -1300 21 -150 28 -262 17
-269 -8 -4 -559 -6 -617 -2 -7 1 -11 279 -11 870 l0 868 29 -36 c16 -20 57
-79 91 -131z m-5184 -1909 c14 -1 15 -98 16 -869 l0 -868 -22 25 c-12 14 -52
73 -91 131 -214 323 -359 660 -448 1035 -48 204 -88 531 -67 544 8 5 538 6
612 2z m4728 -1057 l2 -1059 -47 -46 c-171 -164 -461 -365 -708 -491 -298
-152 -692 -277 -990 -313 -27 -4 -60 -8 -73 -10 -111 -18 -454 -24 -617 -11
-698 55 -1354 336 -1871 801 l-74 66 0 1059 0 1059 23 3 c12 2 996 3 2187 2
l2165 0 3 -1060z m968 1015 c1 -46 -30 -322 -40 -349 -2 -8 -7 -34 -10 -58 -3
-24 -8 -47 -10 -51 -3 -4 -8 -23 -11 -42 -3 -19 -13 -57 -21 -85 -8 -28 -16
-60 -19 -70 -30 -147 -199 -544 -311 -734 -32 -54 -166 -255 -192 -288 -17
-22 -18 8 -18 845 l0 868 25 5 c14 3 156 5 315 4 l291 0 1 -45z"/>
</g>
</svg>
