<?xml version="1.0" standalone="no"?>
<!DOCTYPE svg PUBLIC "-//W3C//DTD SVG 1.1//EN" "http://www.w3.org/Graphics/SVG/1.1/DTD/svg11.dtd" >
<svg xmlns="http://www.w3.org/2000/svg">
<metadata>
This is a custom SVG webfont generated by Font Squirrel.
Copyright   : Copyright c August 1 2011 Jovanny Lemonad lemonadjovannyru with Reserved Font Name Numans
Designer    : Jovanny Lemonad
Foundry     : Jovanny Lemonad
Foundry URL : httpwwwjovannyru
</metadata>
<defs>
<font id="NumansRegular" horiz-adv-x="1032" >
<font-face units-per-em="2048" ascent="1638" descent="-410" />
<missing-glyph horiz-adv-x="614" />
<glyph unicode=" "  horiz-adv-x="614" />
<glyph unicode="&#x09;" horiz-adv-x="614" />
<glyph unicode="&#xa0;" horiz-adv-x="614" />
<glyph unicode="!" horiz-adv-x="634" d="M205 1413q0 20 20 21h185q20 -1 20 -21l-41 -1034q0 -20 -20 -21h-103q-20 0 -20 21zM211 31v133q0 23 9 32t32 9h133q23 0 32 -9.5t9 -31.5v-133q0 -23 -9 -32t-32 -9h-133q-23 0 -32 9t-9 32z" />
<glyph unicode="&#x22;" horiz-adv-x="696" d="M102 1413q0 20 21 21h143q21 -1 21 -21l-31 -461q0 -20 -20 -20h-80q-20 0 -21 20zM410 1413q0 20 20 21h143q21 -1 21 -21l-31 -461q0 -20 -20 -20h-82q-20 0 -21 20z" />
<glyph unicode="#" horiz-adv-x="1587" d="M61 389v103q0 20 21 20h280l107 410h-244q-20 0 -20 20v102q0 20 20 21h281l88 348q6 20 31 21h123q16 0 10 -21l-88 -348h428l90 348q6 20 31 21h122q17 -1 11 -21l-90 -348h243q20 0 21 -21v-102q0 -20 -21 -20h-280l-107 -410h244q20 0 20 -20v-103q0 -20 -20 -20 h-281l-88 -349q-6 -20 -30 -20h-123q-16 0 -11 20l89 349h-429l-90 -349q-6 -20 -30 -20h-123q-16 0 -10 20l90 349h-244q-20 0 -21 20zM526 512h428l107 410h-428z" />
<glyph unicode="$" horiz-adv-x="1382" d="M104 365q-4 25 21 24h129q18 0 25 -20q86 -256 438 -256q184 0 281.5 65.5t97.5 169.5q0 90 -61.5 149.5t-192.5 96.5l-359 102q-348 100 -348 379q0 160 126 265.5t345 119.5v158q0 20 21 20h143q21 0 21 -20v-160q195 -25 315.5 -126t155.5 -263q4 -25 -21 -25h-129 q-18 0 -25 21q-86 256 -409 256q-170 0 -264.5 -65.5t-94.5 -170.5q0 -92 61.5 -149t194.5 -96l359 -103q346 -98 346 -379q0 -160 -130 -265t-359 -120v-157q0 -20 -21 -21h-143q-20 0 -21 21v159q-213 20 -340 122t-162 268z" />
<glyph unicode="%" horiz-adv-x="1832" d="M82 1085.5q0 176.5 98.5 277.5t260 101t260 -101t98.5 -277.5t-98.5 -277.5t-260 -101t-260 101t-98.5 277.5zM246 1085q0 -127 53 -191.5t141 -64.5t141.5 64.5t53.5 191.5t-53.5 191.5t-141.5 64.5t-141 -64.5t-53 -191.5zM471 20l707 1393q10 20 30 21h144 q20 0 10 -21l-707 -1393q-10 -20 -30 -20h-144q-20 0 -10 20zM1034 348q0 176 98.5 277.5t260 101.5t260 -101.5t98.5 -277.5t-98.5 -277.5t-260 -101.5t-260 101.5t-98.5 277.5zM1198 348q0 -127 53.5 -191.5t141.5 -64.5t141 64.5t53 191.5t-53 191.5t-141 64.5 t-141.5 -64.5t-53.5 -191.5z" />
<glyph unicode="&#x26;" horiz-adv-x="1511" d="M102 358q0 86 32 163t77 126t90 85t77 51l32 16q-6 6 -17.5 15t-40 41t-50 65.5t-39 82t-17.5 93.5q0 172 125 270t366 98q201 0 342.5 -107.5t180.5 -287.5q4 -25 -21 -25h-129q-18 0 -25 21q-39 117 -133 186.5t-215 69.5q-307 0 -307 -205q0 -59 49 -133t98 -119 l48 -45l419 -409l226 245q14 16 30 0l84 -73q14 -13 2 -29l-229 -256l285 -277q8 -8 6 -14t-10 -6h-191q-25 0 -49 20l-154 154q-186 -205 -491 -205q-195 0 -323 107.5t-128 281.5zM287 358q0 -115 77.5 -180t208.5 -65q201 0 359 174l-410 399q-10 -4 -25.5 -12t-56.5 -38 t-71.5 -64.5t-56 -92t-25.5 -121.5z" />
<glyph unicode="'" horiz-adv-x="389" d="M102 1413q0 20 21 21h143q21 -1 21 -21l-31 -461q0 -20 -20 -20h-82q-20 0 -21 20z" />
<glyph unicode="(" horiz-adv-x="544" d="M102 583.5q0 151.5 30 300t72 253t85 186.5t72 122l30 40q16 20 39 20h94q12 0 17.5 -5t-0.5 -15q-10 -16 -27.5 -46t-61.5 -126t-77 -195.5t-60.5 -246t-27.5 -288t26.5 -285.5t63.5 -249.5t73.5 -191.5t63.5 -130l27 -44q6 -10 1 -15.5t-18 -5.5h-94q-23 0 -39 21 q-12 14 -31.5 41.5t-68.5 118.5t-88 189.5t-70 249t-31 302z" />
<glyph unicode=")" horiz-adv-x="544" d="M3 -333q-5 5 1 16q10 16 27.5 45.5t61.5 126t77 196t60.5 245.5t27.5 287.5t-26.5 286t-63.5 250t-74 191.5t-63 130l-27 44q-6 10 -1 15t17 5h95q23 0 39 -20q12 -14 31.5 -42t68.5 -119t88 -189.5t69.5 -249t30.5 -302t-29.5 -300t-71.5 -253t-85 -186.5t-73 -122 l-29 -39q-16 -20 -39 -21h-95q-12 0 -17 5z" />
<glyph unicode="*" horiz-adv-x="929" d="M88 887q-12 20 8 28l205 119l-205 119q-16 8 -8 29l62 104q12 20 28 8l205 -118v237q0 20 20 21h123q20 0 21 -21v-237l205 118q16 12 28 -8l62 -104q8 -20 -8 -29l-207 -119l207 -119q20 -8 8 -28l-62 -107q-8 -18 -28 -6l-205 119v-238q0 -20 -21 -20h-123 q-20 0 -20 20v238l-205 -119q-20 -12 -28 6z" />
<glyph unicode="+" horiz-adv-x="1196" d="M82 645v103q0 20 20 20h424v424q0 20 21 20h102q21 0 21 -20v-424h424q20 0 20 -20v-103q0 -20 -20 -20h-424v-424q0 -20 -21 -21h-102q-20 0 -21 21v424h-424q-20 0 -20 20z" />
<glyph unicode="," horiz-adv-x="501" d="M143 31v133q0 23 9.5 32t31.5 9h133q23 0 32 -9.5t9 -31.5v-123q0 -37 -20 -72l-113 -194h-82l95 215h-54q-23 0 -32 9t-9 32z" />
<glyph unicode="-" d="M82 604v103q0 20 20 20h828q20 0 20 -20v-103q0 -20 -20 -20h-828q-20 0 -20 20z" />
<glyph unicode="." horiz-adv-x="501" d="M143 31v133q0 23 9.5 32t31.5 9h133q23 0 32 -9.5t9 -31.5v-133q0 -23 -9 -32t-32 -9h-133q-23 0 -32 9t-9 32z" />
<glyph unicode="/" horiz-adv-x="878" d="M45 20l604 1393q10 20 31 21h143q20 0 11 -21l-605 -1393q-10 -20 -30 -20h-144q-20 0 -10 20z" />
<glyph unicode="0" horiz-adv-x="1433" d="M123 716.5q0 354.5 163 551t431 196.5t431 -196.5t163 -551t-163 -551t-431 -196.5t-431 196.5t-163 551zM307 717q0 -299 115 -451.5t295 -152.5t294.5 152.5t114.5 451.5t-114.5 451.5t-294.5 152.5t-295 -152.5t-115 -451.5z" />
<glyph unicode="1" horiz-adv-x="765" d="M27 1108q-10 16 4 29l305 235q4 2 22.5 17.5t24.5 18.5t21.5 11t27.5 11.5t27 3.5h82q20 -1 20 -21v-1393q0 -20 -20 -20h-144q-20 0 -20 20v1178l-258 -178q-18 -12 -29 4z" />
<glyph unicode="2" horiz-adv-x="1290" d="M84 1069q39 184 187.5 289.5t375.5 105.5q254 0 393.5 -111.5t139.5 -318.5q0 -139 -89.5 -247.5t-216 -178t-256 -134t-221.5 -147.5t-98 -184h868q20 0 21 -20v-103q0 -20 -21 -20h-1032q-20 0 -20 20v93q0 106 48 194t126 149.5t172 116t188 103.5t172 100t126 120 t48 148q0 135 -92 206t-256 71q-150 0 -250 -68.5t-139 -187.5q-6 -20 -25 -21h-129q-25 0 -20 25z" />
<glyph unicode="3" horiz-adv-x="1335" d="M104 365q-4 25 21 24h129q18 0 25 -20q39 -119 139 -187.5t250 -68.5q170 0 265 68.5t95 197.5q0 131 -90 203.5t-258 72.5h-184q-20 0 -21 21v102q0 20 21 21h174q147 0 232 67.5t85 188.5q0 129 -91 197.5t-247 68.5q-135 0 -232.5 -69.5t-135.5 -186.5q-6 -20 -25 -21 h-129q-25 0 -21 25q39 182 184.5 288.5t358.5 106.5q246 0 384 -108.5t138 -300.5q0 -117 -63.5 -203t-194.5 -115q147 -29 223 -125t76 -233q0 -193 -142 -301.5t-402 -108.5q-227 0 -376 105.5t-188 290.5z" />
<glyph unicode="4" horiz-adv-x="1318" d="M41 328v102q0 45 61 123l666 819q49 61 102 62h144q20 0 20 -21v-962h203q20 0 20 -21v-102q0 -20 -20 -21h-203v-287q0 -20 -20 -20h-144q-20 0 -20 20v287h-789q-20 0 -20 21zM225 451h625v768z" />
<glyph unicode="5" horiz-adv-x="1384" d="M166 365q-4 25 20 24h129q18 0 25 -20q39 -117 136 -186.5t233 -69.5q178 0 273 84t95 243q0 162 -97 245t-282 83q-115 0 -256 -63q-72 -29 -112 -29h-103q-20 0 -20 20v717q0 20 20 21h940q20 0 21 -21v-102q0 -20 -21 -21h-776v-450q143 72 318 71q266 0 409.5 -122.5 t143.5 -348t-143.5 -348.5t-409.5 -123q-213 0 -358.5 106.5t-184.5 289.5z" />
<glyph unicode="6" horiz-adv-x="1331" d="M123 502v450q0 238 147.5 375t395.5 137q203 0 344 -98t178 -276q4 -25 -21 -25h-129q-18 0 -24 20q-37 113 -130 174.5t-218 61.5q-158 0 -258.5 -98.5t-100.5 -270.5v-164q14 16 41 40t123 64t205 40q242 0 387 -127t145 -354.5t-145 -354.5t-387 -127 q-244 0 -398.5 142.5t-154.5 390.5zM307 471q0 -164 103.5 -261t255.5 -97q160 0 259 87t99 250.5t-99 250.5t-259 87q-150 0 -254.5 -88t-104.5 -229z" />
<glyph unicode="7" horiz-adv-x="1093" d="M20 1311v102q0 20 21 21h991q20 0 21 -21v-92q0 -41 -29 -113l-543 -1188q-10 -20 -30 -20h-144q-20 0 -10 20l580 1270h-836q-20 0 -21 21z" />
<glyph unicode="8" horiz-adv-x="1372" d="M123 379q0 131 80 229.5t217 128.5q-131 29 -193.5 115t-62.5 203q0 195 135 302t387 107t387 -107.5t135 -301.5q0 -117 -62.5 -203t-193.5 -115q137 -31 217 -129t80 -229q0 -195 -144 -302.5t-418.5 -107.5t-419 107.5t-144.5 302.5zM307 379q0 -131 97.5 -198.5 t281.5 -67.5t281.5 67.5t97.5 198.5q0 133 -95.5 204.5t-283.5 71.5t-283.5 -71.5t-95.5 -204.5zM348 1055q0 -123 88 -189.5t250 -66.5t250 66.5t88 189.5q0 129 -88 197.5t-250 68.5t-250 -68.5t-88 -197.5z" />
<glyph unicode="9" horiz-adv-x="1331" d="M123 983q0 227 145.5 354t386.5 127q244 0 398.5 -142t154.5 -390v-451q0 -238 -147.5 -375t-394.5 -137q-203 0 -344.5 98.5t-178.5 276.5q-4 25 21 25h129q18 0 24 -21q37 -113 130.5 -174t218.5 -61q158 0 258 98t100 270v164q-14 -16 -41 -39.5t-123 -63.5t-205 -40 q-242 0 -387 127t-145 354zM307 983q0 -164 99.5 -251t259.5 -87q150 0 254 88t104 230q0 164 -103.5 261t-254.5 97q-160 0 -259.5 -87t-99.5 -251z" />
<glyph unicode=":" horiz-adv-x="501" d="M143 31v133q0 23 9.5 32t31.5 9h133q23 0 32 -9.5t9 -31.5v-133q0 -23 -9 -32t-32 -9h-133q-23 0 -32 9t-9 32zM143 932v133q0 23 9.5 32t31.5 9h133q23 0 32 -9.5t9 -31.5v-133q0 -23 -9 -32t-32 -9h-133q-23 0 -32 9t-9 32z" />
<glyph unicode=";" horiz-adv-x="501" d="M143 31v133q0 23 9.5 32t31.5 9h133q23 0 32 -9.5t9 -31.5v-123q0 -37 -20 -72l-113 -194h-82l95 215h-54q-23 0 -32 9t-9 32zM143 932v133q0 23 9.5 32t31.5 9h133q23 0 32 -9.5t9 -31.5v-133q0 -23 -9 -32t-32 -9h-133q-23 0 -32 9t-9 32z" />
<glyph unicode="&#x3c;" horiz-adv-x="1075" d="M41 502v61q0 67 61 92l850 359q20 6 21 -10v-134q0 -25 -21 -30l-727 -308l727 -307q20 -6 21 -30v-134q0 -16 -21 -10l-850 359q-61 27 -61 92z" />
<glyph unicode="=" d="M82 420v102q0 21 20 21h828q20 0 20 -21v-102q0 -20 -20 -21h-828q-20 0 -20 21zM82 788v103q0 20 20 20h828q20 0 20 -20v-103q0 -20 -20 -20h-828q-20 0 -20 20z" />
<glyph unicode="&#x3e;" horiz-adv-x="1075" d="M102 61v134q0 25 21 30l727 307l-727 308q-20 6 -21 30v134q1 16 21 10l850 -359q61 -25 61 -92v-61q0 -66 -61 -92l-850 -359q-20 -6 -21 10z" />
<glyph unicode="?" horiz-adv-x="1220" d="M43 1069q39 184 187.5 289.5t375.5 105.5q254 0 393.5 -111.5t139.5 -318.5q0 -88 -35 -161.5t-87 -118.5t-113.5 -90.5t-114 -79t-87 -81.5t-34.5 -104v-20q0 -20 -21 -21h-143q-20 0 -21 21v20q0 92 48.5 165t118 121t139 95t117.5 114t48 150q0 135 -92 206t-256 71 q-150 0 -250 -68.5t-139 -187.5q-6 -20 -24 -21h-130q-25 0 -20 25zM467 31v133q0 23 9 32t32 9h133q23 0 32 -9.5t9 -31.5v-133q0 -23 -9 -32t-32 -9h-133q-23 0 -32 9t-9 32z" />
<glyph unicode="@" horiz-adv-x="1720" d="M102 716.5q0 327.5 216.5 537.5t541.5 210q328 0 543 -217t215 -571q0 -211 -75 -315.5t-191 -104.5q-55 0 -99.5 14.5t-69 36t-41 43t-21.5 35.5l-5 14q-4 -6 -11 -15t-34 -33.5t-58.5 -44t-83.5 -35t-110 -15.5q-172 0 -265 75t-93 201.5t93 201.5t265 75h266 q0 119 -64.5 187.5t-160.5 68.5q-150 0 -225 -133q-10 -20 -25 -21h-108q-27 0 -21 25q84 262 379 262q170 0 279.5 -107.5t109.5 -281.5v-256q0 -164 103 -164q47 0 79.5 66.5t32.5 220.5q0 303 -165.5 479t-438.5 176q-270 0 -437 -169t-167 -445.5t167 -445.5t437 -169 q123 0 225 41q10 2 15.5 -4t5.5 -16v-92q0 -25 -21 -31q-92 -31 -225 -31q-326 0 -542 210t-216 537.5zM625 532.5q0 -65.5 49 -104.5t145 -39q55 0 102.5 16.5t76 40t50 49t29.5 41t8 17.5v123h-266q-96 0 -145 -39t-49 -104.5z" />
<glyph unicode="A" horiz-adv-x="1458" d="M63 20l543 1352q25 61 92 62h62q68 0 92 -62l543 -1352q3 -5 3 -9q0 -11 -20 -11h-147q-21 0 -31 20l-143 349h-656l-143 -349q-10 -20 -31 -20h-147q-20 0 -20 11q0 4 3 9zM453 512h553l-277 686z" />
<glyph unicode="B" horiz-adv-x="1484" d="M205 20v1393q0 21 20 21h543q250 0 381 -101.5t131 -288.5q0 -109 -61.5 -193.5t-184.5 -113.5q168 -29 248 -121t80 -217q0 -193 -130 -296t-382 -103h-625q-20 0 -20 20zM389 143h461q158 0 243 63.5t85 192.5t-85 192.5t-243 63.5h-461v-512zM389 799h399 q141 0 224.5 62.5t83.5 183t-86 183t-242 62.5h-379v-491z" />
<glyph unicode="C" horiz-adv-x="1507" d="M123 717q0 350 186 548.5t479 198.5q252 0 409 -108.5t196 -306.5q4 -25 -21 -25h-129q-18 0 -24 20q-86 276 -431 277q-207 0 -344 -152.5t-137 -451.5t138.5 -451.5t353.5 -152.5q344 0 430 276q6 20 24 21h129q22 0 22 -19q0 -3 -1 -6q-39 -199 -195.5 -307.5 t-408.5 -108.5q-301 0 -488.5 198t-187.5 550z" />
<glyph unicode="D" horiz-adv-x="1505" d="M205 20v1393q0 20 20 21h471q319 0 513 -191.5t194 -525.5t-194 -525.5t-513 -191.5h-471q-20 0 -20 20zM389 143h307q233 0 378 146.5t145 427t-144.5 427t-378.5 146.5h-307v-1147z" />
<glyph unicode="E" horiz-adv-x="1318" d="M205 20v1393q0 20 20 21h992q20 0 20 -21v-102q0 -20 -20 -21h-828v-491h684q20 0 21 -21v-102q0 -20 -21 -21h-684v-512h828q20 0 20 -20v-103q0 -20 -20 -20h-992q-20 0 -20 20z" />
<glyph unicode="F" horiz-adv-x="1298" d="M205 20v1393q0 20 20 21h992q20 0 20 -21v-102q0 -20 -20 -21h-828v-532h684q20 0 21 -21v-102q0 -20 -21 -21h-684v-594q0 -20 -20 -20h-144q-20 0 -20 20z" />
<glyph unicode="G" horiz-adv-x="1576" d="M123 717q0 350 186 548.5t479 198.5q252 0 409 -108.5t196 -306.5q4 -25 -21 -25h-129q-18 0 -24 20q-86 276 -431 277q-207 0 -344 -152.5t-137 -451.5q0 -297 135.5 -450.5t335.5 -153.5q197 0 324 128t127 332v21h-418q-20 0 -20 20v103q0 20 20 20h582q20 0 20 -20 v-697q0 -20 -20 -20h-113q-18 0 -20 20l-21 185q-6 -10 -16.5 -25.5t-51.5 -56.5t-89 -72t-130 -56.5t-174 -25.5q-287 0 -471 199t-184 549z" />
<glyph unicode="H" horiz-adv-x="1576" d="M205 20v1393q0 20 20 21h144q20 0 20 -21v-635h799v635q0 20 20 21h144q20 -1 20 -21v-1393q0 -20 -20 -20h-144q-20 0 -20 20v615h-799v-615q0 -20 -20 -20h-144q-20 0 -20 20z" />
<glyph unicode="I" horiz-adv-x="593" d="M205 20v1393q0 20 20 21h144q20 -1 20 -21v-1393q0 -20 -20 -20h-144q-20 0 -20 20z" />
<glyph unicode="J" horiz-adv-x="1024" d="M41 45v100q0 25 20 17q123 -49 267 -49q168 0 247.5 78.5t79.5 248.5v850h-471q-20 0 -20 21v102q0 20 20 21h635q20 0 21 -21v-973q0 -219 -125 -345t-367 -126q-74 0 -145.5 12.5t-106.5 24.5l-35 12q-20 10 -20 27z" />
<glyph unicode="K" horiz-adv-x="1419" d="M205 20v1393q0 20 20 21h144q20 0 20 -21v-625h154q184 0 286 154l308 471q14 20 30 21h168q33 0 17 -25l-318 -487q-119 -182 -246 -205q147 -23 267 -205l317 -487q5 -8 5 -14q0 -11 -21 -11h-168q-16 0 -31 20l-307 472q-101 153 -285 153h-2h-174v-625q0 -20 -20 -20 h-144q-20 0 -20 20z" />
<glyph unicode="L" horiz-adv-x="1236" d="M205 20v1393q0 20 20 21h144q20 0 20 -21v-1270h807q20 0 21 -20v-103q0 -20 -21 -20h-971q-20 0 -20 20z" />
<glyph unicode="M" horiz-adv-x="1976" d="M205 20v1393q0 20 20 21h144q59 0 92 -62l528 -1005l527 1005q33 61 92 62h143q20 0 21 -21v-1393q0 -20 -21 -20h-143q-20 0 -21 20v1106l-471 -890q-33 -61 -92 -62h-72q-59 1 -92 62l-471 890v-1106q0 -20 -20 -20h-144q-20 0 -20 20z" />
<glyph unicode="N" horiz-adv-x="1617" d="M205 20v1393q0 20 20 21h144q61 0 102 -62l758 -1126v1167q0 20 20 21h144q20 0 20 -21v-1393q0 -20 -20 -20h-144q-61 0 -102 61l-758 1127v-1168q0 -20 -20 -20h-144q-20 0 -20 20z" />
<glyph unicode="O" horiz-adv-x="1576" d="M123 717q0 350 186.5 548.5t479 198.5t479 -198.5t186.5 -548.5t-186.5 -549t-479 -199t-479 199t-186.5 549zM307 717q0 -299 137.5 -451.5t344 -152.5t344 152.5t137.5 451.5t-137.5 451.5t-344 152.5t-344 -152.5t-137.5 -451.5z" />
<glyph unicode="P" horiz-adv-x="1454" d="M205 20v1393q0 20 20 21h594q256 0 394.5 -123t138.5 -358.5t-138.5 -358.5t-394.5 -123h-430v-451q0 -20 -20 -20h-144q-20 0 -20 20zM389 614h430q162 0 255 84t93 254t-93 254t-255 84h-430v-676z" />
<glyph unicode="Q" horiz-adv-x="1576" d="M123 717q0 350 186.5 548.5t479 198.5t479 -198.5t186.5 -548.5q0 -408 -272 -604h374q20 0 21 -21v-102q0 -20 -21 -21h-768q-293 0 -479 199t-186 549zM307 717q0 -299 137.5 -451.5t344 -152.5t344 152.5t137.5 451.5t-137.5 451.5t-344 152.5t-344 -152.5 t-137.5 -451.5z" />
<glyph unicode="R" horiz-adv-x="1460" d="M205 20v1393q0 20 20 21h574q252 0 392 -116t140 -325q0 -150 -107.5 -259t-301.5 -140q57 -14 103 -50t66.5 -62.5t55.5 -82.5l246 -374q5 -8 5 -14q0 -11 -22 -11h-168q-16 0 -30 20l-246 379q-99 154 -287 154h-256v-533q0 -20 -20 -20h-144q-20 0 -20 20zM389 696 h410q158 0 253 77t95 220.5t-95.5 220t-252.5 76.5h-410v-594z" />
<glyph unicode="S" horiz-adv-x="1382" d="M104 365q-1 3 -1 6q0 18 22 18h129q18 0 25 -20q86 -256 438 -256q184 0 281.5 65.5t97.5 169.5q0 90 -61.5 149.5t-192.5 96.5l-359 102q-348 100 -348 379q0 172 146.5 280.5t396.5 108.5q242 0 393.5 -105.5t190.5 -289.5q4 -25 -21 -25h-129q-18 0 -25 21 q-86 256 -409 256q-170 0 -264.5 -65.5t-94.5 -170.5q0 -92 61.5 -149t194.5 -96l359 -103q346 -98 346 -379q0 -174 -150.5 -281.5t-412.5 -107.5t-418 104.5t-195 291.5z" />
<glyph unicode="T" horiz-adv-x="1290" d="M41 1311v102q0 21 20 21h1168q20 0 20 -21v-102q0 -20 -20 -21h-502v-1270q0 -20 -20 -20h-144q-20 0 -20 20v1270h-482q-20 0 -20 21z" />
<glyph unicode="U" horiz-adv-x="1556" d="M184 573v840q0 20 21 21h143q20 0 21 -21v-840q0 -227 114.5 -343.5t294.5 -116.5t295 116.5t115 343.5v840q0 20 20 21h144q20 0 20 -21v-840q0 -281 -164 -442.5t-430 -161.5t-430 162t-164 442z" />
<glyph unicode="V" horiz-adv-x="1458" d="M63 1413q-3 5 -3 9q0 11 20 12h147q20 0 31 -21l471 -1177l471 1177q10 20 31 21h147q20 0 20 -11q0 -4 -3 -10l-543 -1352q-25 -61 -92 -61h-62q-68 0 -92 61z" />
<glyph unicode="W" horiz-adv-x="2093" d="M63 1413q-2 5 -2 9q0 12 19 12h139q25 0 31 -21l362 -1167l318 1126q6 25 29.5 43.5t52.5 18.5h71q29 0 52.5 -18.5t29.5 -43.5l316 -1126l362 1167q6 20 31 21h139q19 0 19 -12q0 -4 -2 -9l-424 -1352q-20 -61 -93 -61h-61q-37 0 -61.5 18.5t-30.5 42.5l-313 1115 l-312 -1115q-6 -25 -30.5 -43t-61.5 -18h-61q-72 0 -93 61z" />
<glyph unicode="X" horiz-adv-x="1380" d="M64 6q-2 2 -2 5q0 4 4 9l516 697l-516 696q-4 5 -4 9t2 6q4 6 18 6h158q25 0 41 -21l409 -553l410 553q16 20 41 21h157q14 0 18 -6q2 -3 2 -6q0 -4 -3 -9l-518 -696l518 -697q4 -5 4 -9q0 -3 -2 -5q-4 -6 -19 -6h-157q-25 0 -41 20l-410 551l-409 -551q-16 -20 -41 -20 h-158q-14 0 -18 6z" />
<glyph unicode="Y" horiz-adv-x="1392" d="M44 1426q5 8 17 8h150q27 0 41 -21l444 -739l445 739q14 20 41 21h149q12 0 17 -8q3 -3 3 -6q0 -4 -3 -7l-560 -932v-461q0 -20 -20 -20h-143q-20 0 -21 20v461l-559 932q-3 3 -3 7q0 3 2 6z" />
<glyph unicode="Z" horiz-adv-x="1320" d="M102 20v72q0 41 52 113l839 1085h-870q-20 0 -21 21v102q0 20 21 21h1075q20 0 21 -21v-72q0 -41 -52 -112l-841 -1086h872q20 0 21 -20v-103q0 -20 -21 -20h-1075q-20 0 -21 20z" />
<glyph unicode="[" horiz-adv-x="684" d="M205 -317v1802q0 20 20 20h439q20 0 20 -20v-103q0 -20 -20 -20h-275v-1557h275q20 0 20 -20v-102q0 -20 -20 -21h-439q-20 0 -20 21z" />
<glyph unicode="\" horiz-adv-x="878" d="M45 1413q-10 20 10 21h144q20 -1 30 -21l605 -1393q10 -20 -11 -20h-143q-20 0 -31 20z" />
<glyph unicode="]" horiz-adv-x="724" d="M0 -215q0 20 20 20h316v1557h-316q-20 0 -20 20v103q0 20 20 20h480q20 0 20 -20v-1802q0 -21 -20 -21h-480q-20 0 -20 21v102z" />
<glyph unicode="^" horiz-adv-x="1134" d="M86 758l379 655q10 20 31 21h143q20 0 31 -21l379 -655q14 -20 -11 -21h-143q-16 0 -31 21l-297 514l-297 -514q-14 -20 -30 -21h-144q-24 1 -10 21z" />
<glyph unicode="_" horiz-adv-x="819" d="M0 -123q0 21 20 21h779q20 0 20 -21v-102q0 -20 -20 -21h-779q-20 0 -20 21v102z" />
<glyph unicode="`" horiz-adv-x="366" d="M4 1413q-14 20 10 21h185q20 -1 30 -21l133 -266q10 -20 -10 -21h-102q-14 0 -31 21z" />
<glyph unicode="a" horiz-adv-x="1290" d="M123 317.5q0 161.5 118.5 255t331.5 93.5h349v10q0 307 -308 307q-96 0 -163.5 -46t-92.5 -118q-6 -20 -24 -20h-129q-23 0 -21 20q16 139 132 223t298 84q238 0 365 -117.5t127 -332.5v-656q0 -20 -21 -20h-112q-20 0 -23 20l-18 113q-4 -6 -14.5 -17.5t-45 -40 t-75.5 -50t-106.5 -39t-137.5 -17.5q-199 0 -314.5 93.5t-115.5 255zM307 317q0 -100 66.5 -152t189.5 -52q66 0 127.5 22.5t101 53t70.5 62.5t45.5 53.5t14.5 23.5v194h-349q-266 0 -266 -205z" />
<glyph unicode="b" horiz-adv-x="1341" d="M205 92v1321q0 20 20 21h144q20 0 20 -21v-348q133 61 307 61q231 0 377 -149.5t146 -423.5q0 -283 -146.5 -433.5t-386.5 -150.5q-131 0 -252 31t-175 61zM389 174q0 -2 35 -16.5t104.5 -29.5t137.5 -15q170 0 269 109.5t99 330.5q0 213 -98 321.5t-260 108.5 q-68 0 -139.5 -15.5t-109.5 -30.5l-38 -15v-748z" />
<glyph unicode="c" horiz-adv-x="1282" d="M123 553q0 276 146.5 424.5t385.5 148.5q203 0 328 -91t164 -253q6 -25 -21 -24h-129q-14 0 -24 20q-94 205 -318 205q-156 0 -252 -108.5t-96 -321.5q0 -219 96.5 -329.5t251.5 -110.5q125 0 202 51t126 153q10 20 25 21h129q21 0 21 -16q0 -4 -1 -9q-39 -164 -166 -254 t-336 -90q-240 0 -386 150.5t-146 433.5z" />
<glyph unicode="d" horiz-adv-x="1341" d="M123 553q0 274 145.5 423.5t376.5 149.5q78 0 155 -15t114 -31l38 -15v348q0 20 21 21h143q20 0 21 -21v-1393q0 -20 -21 -20h-112q-20 0 -23 20l-18 113q-4 -6 -14.5 -17.5t-43.5 -40t-68.5 -50t-94 -39t-117.5 -17.5q-219 0 -360.5 148.5t-141.5 435.5zM307 553 q0 -219 90.5 -329.5t237.5 -110.5q55 0 107.5 22.5t89 53t64.5 62.5t42 53.5t14 23.5v594q-133 61 -286 61q-162 0 -260.5 -108.5t-98.5 -321.5z" />
<glyph unicode="e" horiz-adv-x="1310" d="M123 553q0 276 146.5 424.5t385.5 148.5q233 0 383 -151.5t150 -401.5v-51q0 -41 -41 -41h-838q16 -186 109.5 -278t236.5 -92q225 0 328 184q12 20 25 20h129q27 0 20 -24q-41 -147 -168 -235.5t-334 -88.5q-240 0 -386 151.5t-146 434.5zM309 625h695q-8 162 -110 260 t-239 98q-141 0 -235 -91t-111 -267z" />
<glyph unicode="f" horiz-adv-x="942" d="M184 20v994q0 205 123 327.5t348 122.5q74 0 140.5 -12t96.5 -25l30 -12q20 -10 20 -26v-101q0 -25 -20 -16q-103 49 -246 49q-307 0 -307 -307v-72h417q20 0 21 -20v-103q0 -20 -21 -20h-417v-779q0 -20 -21 -20h-143q-20 0 -21 20z" />
<glyph unicode="g" horiz-adv-x="1320" d="M123 594q0 248 148.5 390t383.5 142q131 0 252 -30.5t175 -61.5l55 -30v-881q0 -492 -512 -492q-197 0 -316 83t-135 225q-2 20 21 20h129q18 0 24 -20q25 -74 95.5 -119t181.5 -45q170 0 248.5 83t78.5 265v10q-133 -61 -307 -61q-227 0 -374.5 141t-147.5 381zM307 594 q0 -180 100.5 -279.5t258.5 -99.5q68 0 139.5 15.5t108.5 30.5l38 15v646q0 2 -34.5 16t-104 29.5t-137.5 15.5q-166 0 -267.5 -101.5t-101.5 -287.5z" />
<glyph unicode="h" horiz-adv-x="1392" d="M205 20v1393q0 20 20 21h144q20 0 20 -21v-440q4 6 14.5 16t43 37t70.5 47.5t97.5 36.5t122.5 16q207 0 339 -128t132 -353v-625q0 -20 -20 -20h-144q-20 0 -20 20v625q0 162 -84 250t-213 88q-90 0 -175 -50t-124 -94t-39 -51v-768q0 -20 -20 -20h-144q-20 0 -20 20z " />
<glyph unicode="i" horiz-adv-x="583" d="M184 1260v133q0 23 9.5 32t31.5 9h133q23 0 32 -9.5t9 -31.5v-133q0 -23 -9 -32t-32 -9h-133q-23 0 -32 9t-9 32zM199 20v1055q0 20 20 21h143q21 -1 21 -21v-1055q0 -20 -21 -20h-143q-20 0 -20 20z" />
<glyph unicode="j" horiz-adv-x="651" d="M-184 -201q0 25 20 17q103 -41 205 -41q225 0 225 307v993q0 20 21 21h143q20 0 21 -21v-993q0 -213 -105.5 -332t-284.5 -119q-55 0 -111 10.5t-85 20.5l-29 10q-20 10 -20 27v100zM252 1260v133q0 23 9 32t32 9h133q23 0 32 -9.5t9 -31.5v-133q0 -23 -9 -32t-32 -9 h-133q-23 0 -32 9t-9 32z" />
<glyph unicode="k" horiz-adv-x="1243" d="M205 20v1393q0 20 20 21h144q20 0 20 -21v-788h103q168 0 266 153l186 297q14 20 31 21h158q31 0 14 -25l-195 -313q-106 -170 -256 -195q156 -23 277 -215l203 -323q5 -9 5 -14q0 -11 -20 -11h-157q-16 0 -31 20l-195 308q-97 153 -264 153h-2h-123v-461q0 -20 -20 -20 h-144q-20 0 -20 20z" />
<glyph unicode="l" horiz-adv-x="593" d="M205 20v1393q0 20 20 21h144q20 -1 20 -21v-1393q0 -20 -20 -20h-144q-20 0 -20 20z" />
<glyph unicode="m" horiz-adv-x="2027" d="M205 20v1055q0 20 20 21h113q20 0 22 -21l19 -112q6 6 16.5 17t44 40t70.5 50.5t93 38.5t114 17q121 0 211 -56t137 -159q29 43 71 85t128 86t180 44q182 0 290.5 -122.5t108.5 -348.5v-635q0 -20 -20 -20h-144q-20 0 -20 20v635q0 162 -63.5 245t-161.5 83 q-82 0 -161 -55.5t-118 -104.5t-39 -55v-748q0 -20 -20 -20h-144q-20 0 -20 20v635q0 162 -63.5 245t-161.5 83q-82 0 -161 -55.5t-118 -104.5t-39 -55v-748q0 -20 -20 -20h-144q-20 0 -20 20z" />
<glyph unicode="n" horiz-adv-x="1392" d="M205 20v1055q0 20 20 21h113q20 0 22 -21l19 -112q4 6 14 17t44 40t72 50.5t100 38.5t128 17q207 0 339 -128t132 -353v-625q0 -20 -20 -20h-144q-20 0 -20 20v625q0 162 -84 250t-213 88q-59 0 -116.5 -22.5t-95.5 -53t-67.5 -62.5t-44 -53.5t-14.5 -23.5v-748 q0 -20 -20 -20h-144q-20 0 -20 20z" />
<glyph unicode="o" horiz-adv-x="1310" d="M123 553q0 276 146.5 424.5t386 148.5t386 -148.5t146.5 -424.5q0 -283 -146.5 -433.5t-386 -150.5t-386 150.5t-146.5 433.5zM307 553q0 -219 96.5 -329.5t252 -110.5t252 110.5t96.5 329.5q0 213 -96.5 321.5t-252 108.5t-252 -108.5t-96.5 -321.5z" />
<glyph unicode="p" horiz-adv-x="1341" d="M205 -317v1392q0 20 20 21h113q20 0 22 -21l19 -112q4 6 14 17t43 40t69 50.5t94.5 38.5t117.5 17q219 0 360.5 -148.5t141.5 -434.5q0 -274 -145.5 -424t-377.5 -150q-78 0 -154.5 15.5t-114.5 30.5l-38 16v-348q0 -20 -20 -21h-144q-20 0 -20 21zM389 174 q133 -61 287 -61q162 0 260 108.5t98 321.5q0 219 -90 329.5t-237 110.5q-55 0 -107.5 -22.5t-89.5 -53t-64.5 -62.5t-42 -53.5t-14.5 -23.5v-594z" />
<glyph unicode="q" horiz-adv-x="1341" d="M123 543q0 283 146.5 433t385.5 150q131 0 252 -30.5t175 -61.5l55 -30v-1321q0 -20 -21 -21h-143q-20 0 -21 21v348q-133 -62 -307 -62q-231 0 -376.5 149.5t-145.5 424.5zM307 543q0 -213 98.5 -321.5t260.5 -108.5q68 0 139.5 15t108.5 31l38 15v748q0 2 -34.5 16 t-104 29.5t-137.5 15.5q-170 0 -269.5 -109.5t-99.5 -330.5z" />
<glyph unicode="r" horiz-adv-x="962" d="M205 20v1055q0 20 20 21h113q20 0 22 -21l19 -174q6 8 16.5 22.5t50 52.5t88 65.5t128 51t167.5 23.5h82q20 0 21 -20v-123q0 -20 -21 -21h-61q-100 0 -184 -25.5t-133.5 -61.5t-84 -71.5t-47.5 -61.5l-12 -25v-687q0 -20 -20 -20h-144q-20 0 -20 20z" />
<glyph unicode="s" horiz-adv-x="1210" d="M104 293q-1 5 -1 8q0 17 22 16h129q12 0 25 -20q102 -184 358 -184q145 0 216 43t71 110q0 63 -48.5 104.5t-166.5 69.5l-256 62q-328 80 -328 317q0 135 122 221t339 86q209 0 340 -88t172 -235q6 -25 -21 -25h-129q-12 0 -24 21q-102 184 -338 184q-137 0 -207 -44 t-70 -110q0 -63 48.5 -104t166.5 -70l256 -61q328 -78 328 -318q0 -135 -124 -221t-347 -86t-357.5 87t-175.5 237z" />
<glyph unicode="t" horiz-adv-x="962" d="M205 420v993q0 20 20 21h144q20 0 20 -21v-317h418q20 0 20 -21v-102q0 -20 -20 -21h-418v-532q0 -152 70.5 -229.5t195.5 -77.5q55 0 111.5 10t85.5 20l29 11q20 8 20 -17v-100q0 -16 -20 -27q-102 -41 -246 -41q-197 0 -313.5 124t-116.5 327z" />
<glyph unicode="u" horiz-adv-x="1413" d="M205 451v624q0 20 20 21h144q20 0 20 -21v-624q0 -162 84 -250t213 -88q59 0 116.5 22.5t95.5 53t67.5 62.5t44 53.5t14.5 23.5v747q0 20 20 21h144q20 0 20 -21v-1055q0 -20 -20 -20h-113q-20 0 -22 20l-19 113q-4 -6 -14 -17.5t-44 -40t-72 -50t-100 -39t-128 -17.5 q-207 0 -339 128t-132 354z" />
<glyph unicode="v" horiz-adv-x="1253" d="M63 1075q-3 5 -3 9q0 11 20 12h137q20 0 31 -21l379 -870l379 870q10 20 30 21h138q19 0 19 -11q0 -4 -3 -10l-440 -1014q-29 -61 -82 -61h-82q-53 0 -82 61z" />
<glyph unicode="w" horiz-adv-x="1789" d="M63 1075q-2 5 -2 9q0 12 19 12h139q25 0 31 -21l276 -829l256 788q12 33 28.5 47.5t53.5 14.5h62q62 -1 82 -62l256 -788l276 829q6 20 31 21h139q18 0 18 -11q0 -4 -2 -10l-340 -1014q-12 -33 -28.5 -47t-52.5 -14h-72q-63 0 -82 61l-256 789l-256 -789q-18 -61 -82 -61 h-72q-37 0 -53 14.5t-29 46.5z" />
<glyph unicode="x" horiz-adv-x="1161" d="M64 7q-2 3 -2 6q0 4 4 7l411 527l-411 528q-3 3 -3 7q0 2 2 6q5 8 17 8h147q25 -1 41 -21l310 -397l311 397q16 20 41 21h147q11 0 17 -8q3 -4 3 -6q0 -4 -3 -7l-414 -528l414 -527q3 -3 3 -7q0 -3 -2 -6q-5 -7 -18 -7h-147q-25 0 -41 20l-311 396l-310 -396 q-16 -20 -41 -20h-147q-12 0 -18 7z" />
<glyph unicode="y" horiz-adv-x="1179" d="M43 1075q-2 5 -2 9q0 11 18 12h138q24 -1 30 -21l228 -655q45 -127 103 -181.5t159 -54.5l235 891q6 20 31 21h137q18 0 18 -13q0 -4 -1 -8l-273 -1034q-57 -215 -151.5 -312.5t-247.5 -97.5q-55 0 -111.5 10.5t-85.5 20.5l-28 10q-20 10 -21 27v100q0 25 21 17 q102 -41 204 -41q94 0 146.5 57t89.5 209q-160 0 -248 84t-162 297z" />
<glyph unicode="z" horiz-adv-x="1142" d="M102 20v93q0 23 13 34l690 805h-682q-20 0 -21 21v102q0 20 21 21h897q20 0 20 -21v-92q0 -23 -12 -35l-694 -805h686q20 0 20 -20v-103q0 -20 -20 -20h-897q-20 0 -21 20z" />
<glyph unicode="{" horiz-adv-x="724" d="M41 532v103q0 20 20 20q90 0 147.5 59.5t57.5 176.5v235q0 180 110.5 279.5t299.5 99.5h29q20 0 20 -20v-103q0 -20 -20 -20h-29q-104 0 -164.5 -58.5t-60.5 -177.5v-235q0 -115 -54.5 -200t-140.5 -107q86 -23 140.5 -108t54.5 -200v-235q0 -119 60 -177.5t165 -58.5h29 q20 0 20 -20v-102q0 -20 -20 -21h-29q-188 0 -299 99.5t-111 279.5v235q0 117 -57 176.5t-148 59.5q-20 0 -20 20z" />
<glyph unicode="|" horiz-adv-x="593" d="M205 -317v1730q0 20 20 21h144q20 -1 20 -21v-1730q0 -20 -20 -21h-144q-20 0 -20 21z" />
<glyph unicode="}" horiz-adv-x="724" d="M0 -215q0 20 20 20h29q104 0 164.5 58.5t60.5 177.5v235q0 115 54.5 200t140.5 108q-86 23 -140.5 107.5t-54.5 199.5v235q0 119 -60 177.5t-165 58.5h-29q-20 0 -20 20v103q0 20 20 20h29q188 0 299 -99t111 -280v-235q0 -117 57 -176.5t148 -59.5q20 0 20 -20v-103 q0 -20 -20 -20q-90 0 -147.5 -59.5t-57.5 -176.5v-235q0 -180 -110.5 -279.5t-299.5 -99.5h-29q-20 0 -20 21v102z" />
<glyph unicode="~" horiz-adv-x="1126" d="M82 547q8 139 88 216t199 77q74 0 145.5 -41t133 -82t110.5 -41q45 0 80.5 39t48.5 94q6 20 24 20h113q20 0 20 -24q-8 -139 -87.5 -216t-198.5 -77q-74 0 -145.5 41t-133 82t-110.5 41q-45 0 -81 -39t-48 -94q-7 -21 -25 -21h-113q-20 0 -20 25z" />
<glyph unicode="&#xa2;" horiz-adv-x="1282" d="M123 553q0 248 118.5 393.5t321.5 173.5v160q0 20 21 20h143q21 0 21 -20v-160q162 -20 263 -107t136 -231q6 -25 -21 -24h-129q-14 0 -24 20q-94 205 -318 205q-156 0 -252 -108.5t-96 -321.5q0 -219 96.5 -329.5t251.5 -110.5q125 0 202 51t126 153q10 20 25 21h129 q27 0 20 -25q-72 -301 -409 -338v-159q0 -20 -21 -21h-143q-20 0 -21 21v159q-203 27 -321.5 175.5t-118.5 402.5z" />
<glyph unicode="&#xa3;" horiz-adv-x="1216" d="M82 20v103q0 20 20 20q184 0 185 267v266h-144q-20 0 -20 20v103q0 20 20 20h144v195q0 205 122.5 327.5t348.5 122.5q74 0 140.5 -12t95.5 -25l30 -12q20 -10 20 -26v-101q0 -25 -20 -16q-102 49 -246 49q-307 0 -307 -307v-195h369q20 0 20 -20v-103q0 -20 -20 -20 h-369v-266q0 -174 -92 -267h776q20 0 21 -20v-103q0 -20 -21 -20h-1053q-20 0 -20 20z" />
<glyph unicode="&#xa5;" horiz-adv-x="1310" d="M44 1426.5q5 7.5 17 7.5h144q27 0 41 -21l409 -676l410 676q14 20 41 21h143q12 0 17.5 -7.5t-0.5 -13.5l-457 -747h246q20 0 20 -21v-82q0 -20 -20 -20h-307v-123h307q20 0 20 -21v-82q0 -20 -20 -20h-307v-277q0 -20 -21 -20h-143q-20 0 -21 20v277h-307q-20 0 -20 20 v82q0 20 20 21h307v123h-307q-20 0 -20 20v82q0 21 20 21h244l-455 747q-6 6 -1 13.5z" />
<glyph unicode="&#xa9;" horiz-adv-x="1720" d="M102 716.5q0 327.5 216.5 537.5t542 210t541.5 -210t216 -537.5t-216 -537.5t-541.5 -210t-542 210t-216.5 537.5zM256 716.5q0 -276.5 167 -445.5t437 -169t437 169t167 445.5t-167 445.5t-437 169t-437 -169t-167 -445.5zM440 727q0 219 116 345t304 126 q295 0 379 -262q6 -25 -20 -25h-109q-14 0 -25 21q-76 133 -225 133q-113 0 -184.5 -88t-71.5 -250t72 -250t184 -88q160 0 236 133q10 20 24 21h109q27 0 20 -25q-84 -262 -389 -262q-188 0 -304 126t-116 345z" />
<glyph unicode="&#xad;" d="M82 604v103q0 20 20 20h828q20 0 20 -20v-103q0 -20 -20 -20h-828q-20 0 -20 20z" />
<glyph unicode="&#xae;" horiz-adv-x="1720" d="M102 716.5q0 327.5 216.5 537.5t542 210t541.5 -210t216 -537.5t-216 -537.5t-541.5 -210t-542 210t-216.5 537.5zM256 716.5q0 -276.5 167 -445.5t437 -169t437 169t167 445.5t-167 445.5t-437 169t-437 -169t-167 -445.5zM502 297v860q0 20 20 21h348q172 0 265.5 -80 t93.5 -207q0 -98 -78 -168t-188 -78q55 -14 89.5 -46t73.5 -87l144 -211q16 -25 -17 -25h-147q-16 0 -31 21l-143 215q-56 82 -154 82h-112v-297q0 -20 -21 -21h-123q-20 0 -20 21zM666 727h204q90 0 142.5 46t52.5 118q0 63 -53.5 108t-141.5 45h-204v-317z" />
<glyph unicode="&#xb4;" horiz-adv-x="366" d="M4 1147l133 266q10 20 31 21h184q25 0 10 -21l-215 -266q-16 -20 -30 -21h-103q-20 1 -10 21z" />
<glyph unicode="&#x2000;" horiz-adv-x="819" />
<glyph unicode="&#x2001;" horiz-adv-x="1638" />
<glyph unicode="&#x2002;" horiz-adv-x="819" />
<glyph unicode="&#x2003;" horiz-adv-x="1638" />
<glyph unicode="&#x2004;" horiz-adv-x="546" />
<glyph unicode="&#x2005;" horiz-adv-x="409" />
<glyph unicode="&#x2006;" horiz-adv-x="273" />
<glyph unicode="&#x2007;" horiz-adv-x="273" />
<glyph unicode="&#x2008;" horiz-adv-x="204" />
<glyph unicode="&#x2009;" horiz-adv-x="327" />
<glyph unicode="&#x200a;" horiz-adv-x="91" />
<glyph unicode="&#x2010;" d="M82 604v103q0 20 20 20h828q20 0 20 -20v-103q0 -20 -20 -20h-828q-20 0 -20 20z" />
<glyph unicode="&#x2011;" d="M82 604v103q0 20 20 20h828q20 0 20 -20v-103q0 -20 -20 -20h-828q-20 0 -20 20z" />
<glyph unicode="&#x2012;" d="M82 604v103q0 20 20 20h828q20 0 20 -20v-103q0 -20 -20 -20h-828q-20 0 -20 20z" />
<glyph unicode="&#x2013;" horiz-adv-x="1228" d="M82 604v103q0 20 20 20h1024q20 0 21 -20v-103q0 -20 -21 -20h-1024q-20 0 -20 20z" />
<glyph unicode="&#x2014;" horiz-adv-x="1546" d="M82 604v103q0 20 20 20h1342q20 0 20 -20v-103q0 -20 -20 -20h-1342q-20 0 -20 20z" />
<glyph unicode="&#x2018;" horiz-adv-x="501" d="M143 1055v123q0 37 21 71l112 195h82l-94 -215h53q23 0 32 -9t9 -32v-133q0 -23 -9 -32t-32 -9h-133q-23 0 -32 9t-9 32z" />
<glyph unicode="&#x2019;" horiz-adv-x="501" d="M143 1014l95 215h-54q-23 0 -32 9t-9 32v133q0 23 9.5 32t31.5 9h133q23 0 32 -9.5t9 -31.5v-123q0 -37 -20 -72l-113 -194h-82z" />
<glyph unicode="&#x201c;" horiz-adv-x="839" d="M143 1055v123q0 37 21 71l112 195h82l-94 -215h53q23 0 32 -9t9 -32v-133q0 -23 -9 -32t-32 -9h-133q-23 0 -32 9t-9 32zM481 1055v123q0 37 21 71l112 195h82l-94 -215h53q23 0 32 -9t9 -32v-133q0 -23 -9 -32t-32 -9h-133q-23 0 -32 9t-9 32z" />
<glyph unicode="&#x201d;" horiz-adv-x="839" d="M143 1014l95 215h-54q-23 0 -32 9t-9 32v133q0 23 9.5 32t31.5 9h133q23 0 32 -9.5t9 -31.5v-123q0 -37 -20 -72l-113 -194h-82zM481 1014l94 215h-53q-23 0 -32 9t-9 32v133q0 23 9.5 32t31.5 9h133q23 0 32 -9.5t9 -31.5v-123q0 -37 -20 -72l-113 -194h-82z" />
<glyph unicode="&#x2022;" horiz-adv-x="901" d="M205 716.5q0 100.5 72.5 173.5t173 73t173 -73t72.5 -173.5t-72.5 -173t-173 -72.5t-173 72.5t-72.5 173z" />
<glyph unicode="&#x2026;" horiz-adv-x="1361" d="M143 31v133q0 23 9.5 32t31.5 9h133q23 0 32 -9.5t9 -31.5v-133q0 -23 -9 -32t-32 -9h-133q-23 0 -32 9t-9 32zM573 31v133q0 23 9.5 32t31.5 9h134q23 0 31.5 -9.5t8.5 -31.5v-133q0 -23 -9 -32t-31 -9h-134q-23 0 -32 9t-9 32zM1004 31v133q0 23 9 32t31 9h134 q23 0 32 -9.5t9 -31.5v-133q0 -23 -9.5 -32t-31.5 -9h-134q-23 0 -31.5 9t-8.5 32z" />
<glyph unicode="&#x202f;" horiz-adv-x="327" />
<glyph unicode="&#x205f;" horiz-adv-x="409" />
<glyph unicode="&#x20ac;" horiz-adv-x="1591" d="M43 543l20 82q6 20 31 20h135q-2 23 -2 72t2 74h-125q-27 0 -20 20l20 82q6 20 31 20h109q49 262 225 406.5t424 144.5q244 0 394.5 -108.5t189.5 -306.5q4 -25 -21 -25h-129q-18 0 -24 20q-82 276 -410 277q-168 0 -294 -103.5t-169 -304.5h604q27 0 21 -20l-21 -82 q-6 -20 -28 -20h-592q-2 -25 -2 -74q0 -12 1 -37t1 -35h579q27 0 21 -20l-21 -82q-6 -20 -28 -21h-535q43 -203 171 -306t302 -103q328 0 410 276q6 20 24 21h129q25 0 21 -25q-39 -199 -189.5 -307.5t-394.5 -108.5q-256 0 -433 144.5t-226 408.5h-181q-27 0 -20 21z" />
<glyph unicode="&#x2122;" horiz-adv-x="1800" d="M41 1331v82q0 21 20 21h652q20 0 20 -21v-82q0 -20 -20 -20h-254v-574q0 -20 -21 -20h-123q-20 0 -20 20v574h-234q-20 0 -20 20zM817 737v676q0 20 21 21h92q53 0 78 -52l239 -419l240 419q25 51 78 52h92q20 0 20 -21v-676q0 -20 -20 -20h-123q-20 0 -21 20v420 l-174 -307q-12 -18 -18 -27.5t-18.5 -16.5t-30.5 -7h-49q-25 0 -38.5 11t-29.5 40l-174 307v-420q0 -20 -20 -20h-123q-20 0 -21 20z" />
<glyph unicode="&#xe000;" horiz-adv-x="1095" d="M0 1095h1095v-1095h-1095v1095z" />
</font>
</defs>
</svg>
